<svg width="35" height="35" viewBox="0 0 35 35" fill="none" xmlns="http://www.w3.org/2000/svg">
<path d="M2.91663 17.5C2.91663 10.6253 2.91663 7.18798 5.05231 5.05231C7.18798 2.91663 10.6253 2.91663 17.5 2.91663C24.3745 2.91663 27.812 2.91663 29.9476 5.05231C32.0833 7.18798 32.0833 10.6253 32.0833 17.5C32.0833 24.3745 32.0833 27.812 29.9476 29.9476C27.812 32.0833 24.3745 32.0833 17.5 32.0833C10.6253 32.0833 7.18798 32.0833 5.05231 29.9476C2.91663 27.812 2.91663 24.3745 2.91663 17.5Z" stroke="black" stroke-width="3"/>
<path d="M21.875 17.5H17.5M17.5 17.5H13.125M17.5 17.5V13.125M17.5 17.5V21.875" stroke="black" stroke-width="3" stroke-linecap="round"/>
</svg>
