<svg width="80" height="72" viewBox="0 0 80 72" fill="none" xmlns="http://www.w3.org/2000/svg">
<path d="M48.48 8L55.8 16H72V64H8V16H24.2L31.52 8H48.48ZM52 0H28L20.68 8H8C3.6 8 0 11.6 0 16V64C0 68.4 3.6 72 8 72H72C76.4 72 80 68.4 80 64V16C80 11.6 76.4 8 72 8H59.32L52 0ZM40 28C46.6 28 52 33.4 52 40C52 46.6 46.6 52 40 52C33.4 52 28 46.6 28 40C28 33.4 33.4 28 40 28ZM40 20C28.96 20 20 28.96 20 40C20 51.04 28.96 60 40 60C51.04 60 60 51.04 60 40C60 28.96 51.04 20 40 20Z" fill="black" fill-opacity="0.25"/>
</svg>
