<svg width="16" height="16" viewBox="0 0 16 16" fill="none" xmlns="http://www.w3.org/2000/svg">
<g clip-path="url(#clip0_142_324)">
<path d="M7.99337 1.33334C4.31337 1.33334 1.33337 4.32 1.33337 8C1.33337 11.68 4.31337 14.6667 7.99337 14.6667C11.68 14.6667 14.6667 11.68 14.6667 8C14.6667 4.32 11.68 1.33334 7.99337 1.33334ZM8.00004 13.3333C5.05337 13.3333 2.66671 10.9467 2.66671 8C2.66671 5.05334 5.05337 2.66667 8.00004 2.66667C10.9467 2.66667 13.3334 5.05334 13.3334 8C13.3334 10.9467 10.9467 13.3333 8.00004 13.3333ZM7.85337 4.66667H7.81337C7.54671 4.66667 7.33337 4.88 7.33337 5.14667V8.29334C7.33337 8.52667 7.45337 8.74667 7.66004 8.86667L10.4267 10.5267C10.6534 10.66 10.9467 10.5933 11.08 10.3667C11.22 10.14 11.1467 9.84 10.9134 9.70667L8.33337 8.17334V5.14667C8.33337 4.88 8.12004 4.66667 7.85337 4.66667Z" fill="#584CF4" fill-opacity="0.6"/>
</g>
<defs>
<clipPath id="clip0_142_324">
<rect width="16" height="16" fill="white"/>
</clipPath>
</defs>
</svg>
