<svg width="96" height="96" viewBox="0 0 96 96" fill="none" xmlns="http://www.w3.org/2000/svg">
<g clip-path="url(#clip0_72_299)">
<path d="M12 72C12 74.2 13.8 76 16 76H36V68H16C13.8 68 12 69.8 12 72ZM12 24C12 26.2 13.8 28 16 28H52V20H16C13.8 20 12 21.8 12 24ZM52 80V76H80C82.2 76 84 74.2 84 72C84 69.8 82.2 68 80 68H52V64C52 61.8 50.2 60 48 60C45.8 60 44 61.8 44 64V80C44 82.2 45.8 84 48 84C50.2 84 52 82.2 52 80ZM28 40V44H16C13.8 44 12 45.8 12 48C12 50.2 13.8 52 16 52H28V56C28 58.2 29.8 60 32 60C34.2 60 36 58.2 36 56V40C36 37.8 34.2 36 32 36C29.8 36 28 37.8 28 40ZM84 48C84 45.8 82.2 44 80 44H44V52H80C82.2 52 84 50.2 84 48ZM64 36C66.2 36 68 34.2 68 32V28H80C82.2 28 84 26.2 84 24C84 21.8 82.2 20 80 20H68V16C68 13.8 66.2 12 64 12C61.8 12 60 13.8 60 16V32C60 34.2 61.8 36 64 36Z" fill="black"/>
</g>
<defs>
<clipPath id="clip0_72_299">
<rect width="96" height="96" fill="white"/>
</clipPath>
</defs>
</svg>
