<?xml version="1.0" standalone="no"?>
<!DOCTYPE svg PUBLIC "-//W3C//DTD SVG 20010904//EN"
 "http://www.w3.org/TR/2001/REC-SVG-20010904/DTD/svg10.dtd">
<svg version="1.0" xmlns="http://www.w3.org/2000/svg"
 width="50.000000pt" height="50.000000pt" viewBox="0 0 50.000000 50.000000"
 preserveAspectRatio="xMidYMid meet">

<g transform="translate(0.000000,50.000000) scale(0.100000,-0.100000)"
fill="#000000" stroke="none">
<path d="M256 402 c-32 -40 -61 -72 -64 -72 -4 0 -30 23 -59 52 -29 28 -56 49
-60 45 -4 -5 72 -87 170 -184 97 -98 179 -174 184 -170 4 4 -19 33 -50 65
l-56 57 33 40 c19 22 32 43 29 48 -2 4 -26 7 -54 7 -27 0 -49 3 -49 7 0 4 9
40 21 80 11 41 19 79 17 85 -3 7 -30 -21 -62 -60z"/>
<path d="M138 256 c-15 -19 -24 -36 -21 -40 4 -3 30 -6 59 -6 l52 0 -24 -77
c-13 -43 -23 -85 -22 -93 2 -9 24 11 56 50 28 36 52 67 52 70 0 3 -28 34 -63
68 l-62 62 -27 -34z"/>
</g>
</svg>
