<svg width="96" height="96" viewBox="0 0 96 96" fill="none" xmlns="http://www.w3.org/2000/svg">
<g clip-path="url(#clip0_36_465)">
<path d="M40 76V56H56V76C56 78.2 57.8 80 60 80H72C74.2 80 76 78.2 76 76V48H82.8C84.64 48 85.52 45.72 84.12 44.52L50.68 14.4C49.16 13.04 46.84 13.04 45.32 14.4L11.88 44.52C10.52 45.72 11.36 48 13.2 48H20V76C20 78.2 21.8 80 24 80H36C38.2 80 40 78.2 40 76Z" fill="black"/>
</g>
<defs>
<clipPath id="clip0_36_465">
<rect width="96" height="96" fill="white"/>
</clipPath>
</defs>
</svg>
