<svg width="96" height="96" viewBox="0 0 96 96" fill="none" xmlns="http://www.w3.org/2000/svg">
<path d="M48 0C28.119 0 12 16.119 12 36C12 43.8285 14.5665 51.012 18.8325 56.895C18.909 57.036 18.921 57.1935 19.008 57.3285L43.008 93.3285C44.121 94.998 45.996 96 48 96C50.004 96 51.879 94.998 52.992 93.3285L76.992 57.3285C77.0805 57.1935 77.091 57.036 77.1675 56.895C81.4335 51.012 84 43.8285 84 36C84 16.119 67.881 0 48 0ZM48 48C41.373 48 36 42.627 36 36C36 29.373 41.373 24 48 24C54.627 24 60 29.373 60 36C60 42.627 54.627 48 48 48Z" fill="black"/>
</svg>
