<svg width="96" height="96" viewBox="0 0 96 96" fill="none" xmlns="http://www.w3.org/2000/svg">
<g clip-path="url(#clip0_186_1565)">
<path d="M59.8217 95.3143H58.9715C56.6251 95.1604 54.3997 94.2176 52.6569 92.6391C50.9141 91.0606 49.7562 88.9392 49.3714 86.6195L43.8857 55.1863C43.7587 54.4176 43.3941 53.7079 42.8431 53.157C42.2921 52.606 41.5825 52.2414 40.8137 52.1143L9.38059 46.6286C7.0765 46.2218 4.97345 45.0594 3.40326 43.3248C1.83308 41.5902 0.885161 39.3822 0.709079 37.0491C0.532996 34.716 1.13877 32.3907 2.43083 30.4401C3.72288 28.4895 5.62765 27.0246 7.84459 26.2766L81.3532 1.26176C83.2189 0.620196 85.2273 0.515557 87.1496 0.959766C89.0719 1.40397 90.8307 2.37917 92.2258 3.77425C93.6209 5.16933 94.5961 6.92821 95.0403 8.8505C95.4845 10.7728 95.3799 12.7812 94.7383 14.6469L69.7509 88.1555C69.0661 90.2457 67.7359 92.0649 65.9517 93.3513C64.1675 94.6377 62.0213 95.325 59.8217 95.3143ZM83.5749 7.76233L10.0389 32.7498C9.26432 33.0112 8.59902 33.5234 8.14821 34.2053C7.6974 34.8873 7.48681 35.7001 7.54975 36.5152C7.61269 37.3302 7.94557 38.101 8.49573 38.7057C9.04589 39.3104 9.78193 39.7143 10.5875 39.8538L42.0206 45.3395C44.1434 45.7201 46.0987 46.7416 47.6237 48.2666C49.1487 49.7916 50.1702 51.747 50.5509 53.8698L56.0366 85.3029C56.176 86.1084 56.58 86.8445 57.1847 87.3946C57.7893 87.9448 58.5601 88.2777 59.3752 88.3406C60.1903 88.4035 61.003 88.193 61.685 87.7422C62.367 87.2913 62.8792 86.626 63.1406 85.8515L88.2377 12.4252C88.4586 11.7754 88.4932 11.0768 88.3375 10.4084C88.1818 9.73999 87.8421 9.12853 87.3568 8.64324C86.8715 8.15796 86.2601 7.81825 85.5917 7.66256C84.9233 7.50687 84.2246 7.54143 83.5749 7.76233Z" fill="black"/>
</g>
<defs>
<clipPath id="clip0_186_1565">
<rect width="96" height="96" fill="white"/>
</clipPath>
</defs>
</svg>
