<svg width="35" height="35" viewBox="0 0 35 35" fill="none" xmlns="http://www.w3.org/2000/svg">
<path fill-rule="evenodd" clip-rule="evenodd" d="M10.1501 6.02295C10.0109 5.88429 9.9116 5.71069 9.86268 5.52041C9.81376 5.33013 9.817 5.13018 9.87206 4.94158C9.92712 4.75298 10.032 4.58269 10.1756 4.44861C10.3192 4.31454 10.4963 4.22161 10.6882 4.17962L17.6401 2.65566C17.8192 2.61645 18.0054 2.62292 18.1814 2.67448C18.3574 2.72604 18.5176 2.82104 18.6473 2.95072C18.777 3.08041 18.872 3.24062 18.9235 3.41663C18.9751 3.59264 18.9816 3.77879 18.9423 3.95795L17.4169 10.9098C17.3748 11.1013 17.282 11.2779 17.1482 11.4212C17.0144 11.5645 16.8446 11.6692 16.6564 11.7244C16.4683 11.7796 16.2688 11.7831 16.0788 11.7348C15.8888 11.6864 15.7154 11.5878 15.5765 11.4494L10.1486 6.02149L10.1501 6.02295ZM19.9748 32.9511C21.1738 32.9511 22.3237 32.4748 23.1716 31.627C24.0194 30.7791 24.4957 29.6292 24.4957 28.4302C24.4957 27.2312 24.0194 26.0813 23.1716 25.2335C22.3237 24.3857 21.1738 23.9094 19.9748 23.9094C18.7758 23.9094 17.626 24.3857 16.7781 25.2335C15.9303 26.0813 15.454 27.2312 15.454 28.4302C15.454 29.6292 15.9303 30.7791 16.7781 31.627C17.626 32.4748 18.7758 32.9511 19.9748 32.9511ZM10.8019 10.7961C10.5285 10.5227 10.1576 10.3691 9.77089 10.3691C9.38419 10.3691 9.01333 10.5227 8.73985 10.7961L5.38131 14.1532C4.80626 14.7282 4.35011 15.4108 4.0389 16.1621C3.72768 16.9134 3.5675 17.7186 3.5675 18.5318C3.5675 19.345 3.72768 20.1502 4.0389 20.9015C4.35011 21.6528 4.80626 22.3355 5.38131 22.9104L5.38714 22.9148C6.5506 24.0753 8.12705 24.7267 9.77034 24.7259C11.4136 24.725 12.9894 24.0721 14.1517 22.9104L22.909 14.1532C24.1923 12.8698 26.2705 12.8698 27.5538 14.1502C28.8342 15.4277 28.8357 17.5015 27.5582 18.7819L27.5553 18.7834L24.974 21.3646C24.7004 21.6381 24.5466 22.009 24.5464 22.3959C24.5463 22.7827 24.6998 23.1538 24.9733 23.4274C25.2467 23.7011 25.6177 23.8549 26.0045 23.855C26.3914 23.8552 26.7625 23.7016 27.0361 23.4282L29.6173 20.8469L29.6232 20.8411C30.7827 19.6785 31.4331 18.103 31.4312 16.461C31.4292 14.8191 30.7752 13.2451 29.613 12.0852C28.4495 10.9247 26.8731 10.2734 25.2298 10.2742C23.5865 10.275 22.0107 10.928 20.8484 12.0896L12.0896 20.8469C10.8078 22.1302 8.72964 22.1302 7.44485 20.8469C6.83118 20.2327 6.48647 19.4 6.48647 18.5318C6.48647 17.6636 6.83118 16.8309 7.44485 16.2167L10.8019 12.8582C11.0753 12.5847 11.2289 12.2138 11.2289 11.8271C11.2289 11.4404 11.0753 11.0696 10.8019 10.7961Z" fill="black"/>
</svg>
