<svg width="35" height="35" viewBox="0 0 35 35" fill="none" xmlns="http://www.w3.org/2000/svg">
<path fill-rule="evenodd" clip-rule="evenodd" d="M10.1501 6.02292C10.0109 5.88426 9.9116 5.71066 9.86268 5.52038C9.81376 5.3301 9.817 5.13015 9.87206 4.94155C9.92712 4.75295 10.032 4.58266 10.1756 4.44858C10.3192 4.31451 10.4963 4.22158 10.6882 4.17959L17.6401 2.65563C17.8192 2.61642 18.0054 2.62289 18.1814 2.67445C18.3574 2.72601 18.5176 2.82101 18.6473 2.95069C18.777 3.08038 18.872 3.24059 18.9235 3.4166C18.9751 3.59261 18.9816 3.77876 18.9423 3.95792L17.4169 10.9098C17.3748 11.1013 17.282 11.2779 17.1482 11.4212C17.0144 11.5645 16.8446 11.6692 16.6564 11.7244C16.4683 11.7795 16.2688 11.7831 16.0788 11.7347C15.8888 11.6863 15.7154 11.5878 15.5765 11.4494L10.1486 6.02146L10.1501 6.02292ZM19.9748 32.951C21.1738 32.951 22.3237 32.4747 23.1716 31.6269C24.0194 30.7791 24.4957 29.6292 24.4957 28.4302C24.4957 27.2312 24.0194 26.0813 23.1716 25.2335C22.3237 24.3857 21.1738 23.9094 19.9748 23.9094C18.7758 23.9094 17.626 24.3857 16.7781 25.2335C15.9303 26.0813 15.454 27.2312 15.454 28.4302C15.454 29.6292 15.9303 30.7791 16.7781 31.6269C17.626 32.4747 18.7758 32.951 19.9748 32.951ZM10.8019 10.796C10.5285 10.5226 10.1576 10.3691 9.77089 10.3691C9.38419 10.3691 9.01333 10.5226 8.73985 10.796L5.38131 14.1531C4.80626 14.7281 4.35011 15.4108 4.0389 16.162C3.72768 16.9133 3.5675 17.7186 3.5675 18.5318C3.5675 19.345 3.72768 20.1502 4.0389 20.9015C4.35011 21.6528 4.80626 22.3354 5.38131 22.9104L5.38714 22.9148C6.5506 24.0753 8.12705 24.7266 9.77034 24.7258C11.4136 24.725 12.9894 24.0721 14.1517 22.9104L22.909 14.1531C24.1923 12.8698 26.2705 12.8698 27.5538 14.1502C28.8342 15.4277 28.8357 17.5015 27.5582 18.7819L27.5553 18.7833L24.974 21.3646C24.7004 21.638 24.5466 22.009 24.5464 22.3958C24.5463 22.7827 24.6998 23.1538 24.9733 23.4274C25.2467 23.701 25.6177 23.8548 26.0045 23.855C26.3914 23.8551 26.7625 23.7016 27.0361 23.4281L29.6173 20.8469L29.6232 20.841C30.7827 19.6785 31.4331 18.103 31.4312 16.461C31.4292 14.819 30.7752 13.2451 29.613 12.0852C28.4495 10.9247 26.8731 10.2734 25.2298 10.2742C23.5865 10.275 22.0107 10.9279 20.8484 12.0896L12.0896 20.8469C10.8078 22.1302 8.72964 22.1302 7.44485 20.8469C6.83118 20.2327 6.48647 19.4 6.48647 18.5318C6.48647 17.6636 6.83118 16.8308 7.44485 16.2167L10.8019 12.8581C11.0753 12.5847 11.2289 12.2138 11.2289 11.8271C11.2289 11.4404 11.0753 11.0695 10.8019 10.796Z" fill="black" fill-opacity="0.25"/>
</svg>
