<svg width="96" height="96" viewBox="0 0 96 96" fill="none" xmlns="http://www.w3.org/2000/svg">
<g clip-path="url(#clip0_36_1273)">
<path d="M43.16 65.16C44.72 66.72 47.24 66.72 48.8 65.16L63.16 50.8C64.72 49.24 64.72 46.72 63.16 45.16L48.8 30.8C47.24 29.24 44.72 29.24 43.16 30.8C41.6 32.36 41.6 34.88 43.16 36.44L50.68 44H16C13.8 44 12 45.8 12 48C12 50.2 13.8 52 16 52H50.68L43.16 59.52C41.6 61.08 41.64 63.64 43.16 65.16ZM76 12H20C15.56 12 12 15.6 12 20V32C12 34.2 13.8 36 16 36C18.2 36 20 34.2 20 32V24C20 21.8 21.8 20 24 20H72C74.2 20 76 21.8 76 24V72C76 74.2 74.2 76 72 76H24C21.8 76 20 74.2 20 72V64C20 61.8 18.2 60 16 60C13.8 60 12 61.8 12 64V76C12 80.4 15.6 84 20 84H76C80.4 84 84 80.4 84 76V20C84 15.6 80.4 12 76 12Z" fill="black"/>
</g>
<defs>
<clipPath id="clip0_36_1273">
<rect width="96" height="96" fill="white"/>
</clipPath>
</defs>
</svg>
