<svg width="30" height="30" viewBox="0 0 30 30" fill="none" xmlns="http://www.w3.org/2000/svg">
<g clip-path="url(#clip0_115_410)">
<path d="M13.4875 20.3625C13.975 20.85 14.7625 20.85 15.25 20.3625L19.7375 15.875C20.225 15.3875 20.225 14.6 19.7375 14.1125L15.25 9.625C14.7625 9.1375 13.975 9.1375 13.4875 9.625C13 10.1125 13 10.9 13.4875 11.3875L15.8375 13.75H5C4.3125 13.75 3.75 14.3125 3.75 15C3.75 15.6875 4.3125 16.25 5 16.25H15.8375L13.4875 18.6C13 19.0875 13.0125 19.8875 13.4875 20.3625ZM23.75 3.75H6.25C4.8625 3.75 3.75 4.875 3.75 6.25V10C3.75 10.6875 4.3125 11.25 5 11.25C5.6875 11.25 6.25 10.6875 6.25 10V7.5C6.25 6.8125 6.8125 6.25 7.5 6.25H22.5C23.1875 6.25 23.75 6.8125 23.75 7.5V22.5C23.75 23.1875 23.1875 23.75 22.5 23.75H7.5C6.8125 23.75 6.25 23.1875 6.25 22.5V20C6.25 19.3125 5.6875 18.75 5 18.75C4.3125 18.75 3.75 19.3125 3.75 20V23.75C3.75 25.125 4.875 26.25 6.25 26.25H23.75C25.125 26.25 26.25 25.125 26.25 23.75V6.25C26.25 4.875 25.125 3.75 23.75 3.75Z" fill="#584CF4"/>
</g>
<defs>
<clipPath id="clip0_115_410">
<rect width="30" height="30" fill="white"/>
</clipPath>
</defs>
</svg>
