<?xml version="1.0" standalone="no"?>
<!DOCTYPE svg PUBLIC "-//W3C//DTD SVG 20010904//EN"
 "http://www.w3.org/TR/2001/REC-SVG-20010904/DTD/svg10.dtd">
<svg version="1.0" xmlns="http://www.w3.org/2000/svg"
 width="50.000000pt" height="50.000000pt" viewBox="0 0 50.000000 50.000000"
 preserveAspectRatio="xMidYMid meet">

<g transform="translate(0.000000,50.000000) scale(0.100000,-0.100000)"
fill="#000000" stroke="none">
<path d="M145 410 c-12 -14 -33 -20 -74 -22 l-56 -3 0 -155 0 -155 235 0 235
0 0 155 0 155 -56 3 c-41 2 -62 8 -74 22 -15 17 -31 20 -105 20 -74 0 -90 -3
-105 -20z m200 -20 c14 -15 31 -20 72 -20 l53 0 0 -140 0 -140 -220 0 -220 0
0 140 0 140 53 0 c41 0 58 5 72 20 15 17 31 20 95 20 64 0 80 -3 95 -20z"/>
<path d="M204 315 c-17 -13 -15 -14 28 -9 41 6 49 3 72 -19 29 -29 34 -50 11
-41 -21 9 -19 -10 5 -31 19 -17 21 -17 40 0 23 21 27 40 6 32 -9 -4 -19 5 -26
24 -22 51 -95 75 -136 44z"/>
<path d="M137 252 c-20 -22 -22 -36 -4 -29 9 3 18 -8 26 -29 20 -54 80 -78
136 -52 28 12 35 35 8 23 -46 -20 -82 -17 -107 9 -29 28 -35 59 -11 50 21 -8
19 9 -3 29 -23 21 -25 21 -45 -1z"/>
</g>
</svg>
