<svg width="96" height="96" viewBox="0 0 96 96" fill="none" xmlns="http://www.w3.org/2000/svg">
<g clip-path="url(#clip0_99_1675)">
<path d="M56.48 16L63.8 24H80V72H16V24H32.2L39.52 16H56.48ZM60 8H36L28.68 16H16C11.6 16 8 19.6 8 24V72C8 76.4 11.6 80 16 80H80C84.4 80 88 76.4 88 72V24C88 19.6 84.4 16 80 16H67.32L60 8ZM48 36C54.6 36 60 41.4 60 48C60 54.6 54.6 60 48 60C41.4 60 36 54.6 36 48C36 41.4 41.4 36 48 36ZM48 28C36.96 28 28 36.96 28 48C28 59.04 36.96 68 48 68C59.04 68 68 59.04 68 48C68 36.96 59.04 28 48 28Z" fill="black"/>
</g>
<defs>
<clipPath id="clip0_99_1675">
<rect width="96" height="96" fill="white"/>
</clipPath>
</defs>
</svg>
